<?xml version="1.0" standalone="no"?>
<!DOCTYPE svg PUBLIC "-//W3C//DTD SVG 20010904//EN"
 "http://www.w3.org/TR/2001/REC-SVG-20010904/DTD/svg10.dtd">
<svg version="1.0" xmlns="http://www.w3.org/2000/svg"
 width="1280.000000pt" height="1270.000000pt" viewBox="0 0 1280.000000 1270.000000"
 preserveAspectRatio="xMidYMid meet">
<metadata>
Created by potrace 1.15, written by Peter Selinger 2001-2017
</metadata>
<g transform="translate(0.000000,1270.000000) scale(0.100000,-0.100000)"
fill="#000000" stroke="none">
<path d="M4620 12459 c-881 -26 -1634 -223 -2260 -592 -424 -250 -811 -608
-1105 -1022 -613 -862 -947 -2047 -1016 -3605 -13 -295 -7 -1149 10 -1390 76
-1063 218 -1841 481 -2630 562 -1687 1480 -2676 2715 -2925 207 -42 342 -56
591 -62 269 -6 421 4 629 42 710 132 1186 542 1315 1134 61 277 44 602 -45
867 -143 425 -528 840 -936 1007 -191 79 -350 110 -564 111 -342 0 -607 -108
-842 -343 -252 -253 -373 -538 -374 -886 -1 -208 39 -353 140 -508 101 -154
249 -269 421 -328 89 -31 104 -33 235 -33 130 -1 145 1 203 25 110 47 174 92
277 194 89 89 193 222 250 319 18 31 18 40 8 100 -15 88 -47 151 -106 208 -79
78 -238 141 -405 163 l-54 7 28 -43 c52 -85 108 -165 181 -261 40 -53 73 -102
73 -109 0 -24 -85 -170 -126 -216 -105 -121 -251 -143 -421 -63 -233 108 -381
500 -304 802 30 118 73 193 160 278 169 167 397 235 704 210 325 -26 520 -103
687 -270 166 -166 242 -367 265 -700 38 -545 -279 -1009 -801 -1173 -177 -56
-434 -72 -686 -42 -968 113 -1643 798 -2061 2090 -160 494 -251 1002 -299
1670 -15 215 -15 934 1 1165 50 744 153 1205 360 1617 243 485 651 863 1188
1102 130 58 119 62 153 -60 62 -223 85 -489 100 -1134 23 -989 74 -1410 227
-1848 130 -373 319 -695 560 -948 96 -102 90 -110 68 106 -9 81 -15 151 -13
155 2 5 91 -74 198 -175 107 -101 196 -182 197 -181 1 0 -10 46 -23 101 -46
189 -71 474 -41 462 6 -3 135 -62 286 -131 151 -70 275 -125 277 -124 1 2
-103 113 -231 248 -225 236 -232 245 -207 252 15 4 120 26 235 49 114 23 207
46 207 50 0 5 -3 9 -8 9 -9 0 -524 268 -534 278 -4 4 96 50 222 102 127 51
227 97 223 101 -16 14 -494 83 -796 114 -65 7 -68 9 -86 44 -51 100 -70 277
-52 471 33 339 120 681 312 1228 182 520 275 889 310 1227 23 233 3 562 -51
808 -11 50 -18 92 -16 94 11 12 99 -48 157 -106 121 -122 164 -245 164 -476
-1 -167 -18 -281 -81 -509 -19 -70 -34 -129 -32 -131 4 -4 1581 -305 1598
-305 9 0 6 8 -7 23 -115 125 -184 542 -169 1032 8 304 9 306 62 344 113 81
235 121 374 121 164 0 316 -64 552 -233 232 -166 532 -450 646 -612 68 -97
128 -211 138 -266 6 -31 -11 -16 -181 154 -411 411 -698 617 -928 668 l-58 12
-195 -194 -194 -194 0 -47 c0 -79 28 -267 59 -393 142 -580 508 -1310 1134
-2257 l189 -288 269 0 c148 0 269 3 269 8 0 4 -27 72 -61 152 -150 358 -323
782 -368 903 l-49 132 34 250 c42 306 40 299 62 290 60 -25 312 -111 410 -139
479 -139 973 -182 1292 -113 334 73 796 232 1369 472 743 311 1206 570 1400
781 34 37 61 71 61 75 0 5 -46 9 -103 9 -122 0 -305 13 -552 41 -222 24 -555
68 -575 76 -9 3 6 11 35 19 151 40 521 69 813 62 100 -2 182 -2 182 -1 0 2
-12 22 -26 45 -70 110 -137 299 -240 678 -184 671 -276 867 -469 992 -88 58
-177 81 -283 76 -134 -7 -230 -58 -383 -205 l-86 -83 -149 71 c-560 267 -1071
468 -1623 638 -91 28 -168 51 -173 51 -4 0 -6 -298 -3 -662 l5 -663 -40 80
c-80 163 -145 381 -200 670 -16 88 -48 251 -71 363 l-42 203 -126 92 c-654
475 -1420 804 -2251 966 -349 68 -716 109 -1045 117 -115 2 -235 6 -265 7 -30
1 -156 0 -280 -4z m-389 -2528 c31 -12 83 -38 117 -59 70 -42 202 -150 202
-164 0 -12 -93 -3 -260 24 -69 11 -180 22 -246 25 -111 5 -130 3 -215 -21
-101 -29 -295 -118 -418 -192 l-76 -46 55 57 c174 180 408 340 565 387 79 23
199 19 276 -11z"/>
<path d="M8720 6162 c-41 -21 -138 -78 -215 -126 -245 -153 -415 -224 -578
-241 -80 -9 -80 -1 -6 -150 85 -174 248 -422 523 -799 147 -200 152 -202 116
-34 -24 108 -24 234 -1 291 l11 29 81 -74 c120 -109 214 -184 314 -250 82 -55
195 -118 211 -118 3 0 -18 26 -46 58 -63 70 -129 200 -132 261 l-3 45 60 19
c39 13 90 20 145 21 102 1 145 -17 210 -91 l42 -48 -7 35 c-19 95 -105 231
-250 393 -84 95 -86 99 -69 118 32 35 109 51 282 56 l164 6 -124 64 c-68 35
-195 103 -282 150 l-159 86 59 30 c88 45 269 116 349 137 73 19 72 24 -8 35
-26 3 -128 29 -225 56 -166 46 -317 79 -366 79 -12 0 -55 -17 -96 -38z"/>
</g>
</svg>
