<?xml version="1.0" standalone="no"?>
<!DOCTYPE svg PUBLIC "-//W3C//DTD SVG 20010904//EN"
 "http://www.w3.org/TR/2001/REC-SVG-20010904/DTD/svg10.dtd">
<svg version="1.0" xmlns="http://www.w3.org/2000/svg"
 width="1206.000000pt" height="1280.000000pt" viewBox="0 0 1206.000000 1280.000000"
 preserveAspectRatio="xMidYMid meet">
<metadata>
Created by potrace 1.15, written by Peter Selinger 2001-2017
</metadata>
<g transform="translate(0.000000,1280.000000) scale(0.100000,-0.100000)"
fill="#000000" stroke="none">
<path d="M3749 12796 c-3 -3 -108 -10 -234 -15 -210 -9 -246 -13 -420 -50
-104 -23 -201 -41 -215 -41 -14 0 -75 -20 -135 -43 -61 -24 -131 -51 -156 -60
-69 -26 -214 -112 -314 -187 -164 -124 -362 -346 -386 -434 -14 -53 -4 -105
24 -115 12 -5 111 -21 220 -37 109 -15 190 -31 180 -35 -10 -3 -70 -12 -133
-18 -63 -7 -145 -16 -181 -21 -36 -6 -112 -13 -167 -16 -56 -4 -106 -12 -111
-18 -5 -6 -25 -48 -44 -94 -46 -106 -43 -137 22 -193 25 -22 81 -58 125 -79
63 -31 76 -41 61 -46 -83 -29 -204 -78 -276 -112 l-87 -40 -11 -53 c-41 -188
-48 -457 -19 -694 10 -88 25 -180 33 -205 7 -25 21 -81 29 -125 9 -44 55 -201
103 -349 l88 -269 89 -24 c50 -13 91 -25 93 -26 1 -2 -21 -19 -49 -38 -28 -19
-56 -42 -62 -52 -9 -14 4 -62 59 -225 l70 -207 52 -20 51 -20 -4 -55 c-3 -30
-10 -79 -16 -108 -10 -47 -9 -65 11 -145 53 -214 92 -382 120 -527 64 -320
130 -809 130 -960 0 -41 6 -176 12 -300 9 -181 6 -867 -4 -924 -1 -6 135 -55
303 -111 l305 -101 -110 -17 c-60 -9 -168 -21 -240 -27 l-130 -11 -77 -51
c-77 -50 -78 -51 -78 -93 l0 -42 72 -30 c40 -17 84 -34 98 -38 21 -7 13 -10
-45 -20 -120 -21 -177 -62 -160 -115 6 -20 -20 -230 -56 -445 -56 -333 -144
-692 -239 -970 -34 -99 -63 -187 -66 -196 -8 -24 112 -74 235 -98 57 -12 106
-21 110 -22 12 -1 -74 -31 -129 -45 -30 -7 -75 -13 -100 -14 -65 0 -101 -13
-160 -56 -48 -36 -58 -51 -120 -181 -38 -79 -71 -143 -74 -143 -15 0 -430 64
-586 90 -96 16 -332 61 -525 100 -192 38 -359 70 -370 70 -12 0 -48 -11 -81
-24 l-59 -24 -8 -144 c-9 -175 -4 -255 28 -379 52 -207 121 -336 270 -502 179
-200 474 -403 637 -436 29 -6 274 -32 543 -57 270 -25 634 -59 810 -77 l320
-32 32 -210 c26 -168 34 -254 39 -430 6 -219 6 -221 -26 -380 -17 -88 -40
-190 -51 -226 -10 -36 -19 -68 -19 -71 0 -3 82 10 183 28 274 50 315 55 537
63 l205 8 55 -37 c125 -84 296 -181 370 -209 53 -21 141 -41 262 -61 101 -17
205 -34 231 -39 l48 -8 -6 261 c-4 143 -15 447 -26 675 -10 227 -19 421 -19
431 0 16 5 17 33 10 27 -7 162 -20 472 -45 33 -3 240 -23 460 -45 220 -22 560
-55 755 -75 794 -78 1145 -108 2005 -170 1188 -85 1348 -96 1392 -95 21 1 99
1 174 0 155 -1 243 14 352 61 128 54 187 100 264 206 21 29 63 87 95 130 327
452 542 1243 681 2507 l14 119 -46 41 c-25 22 -72 66 -106 96 -33 31 -100 81
-150 111 -49 31 -138 87 -196 125 -58 38 -115 74 -125 81 -16 10 -13 12 26 12
41 1 279 -23 343 -34 20 -3 27 0 27 11 0 11 5 14 18 9 41 -16 124 -34 187 -40
l68 -8 -7 269 c-8 327 -9 333 -49 362 -18 12 -43 31 -57 42 -27 21 -373 101
-852 196 -136 26 -244 52 -240 55 4 4 63 24 132 44 69 20 175 51 235 70 61 19
162 48 225 64 183 47 396 107 510 144 l105 33 -3 75 c-15 354 -122 953 -248
1384 -109 373 -177 553 -439 1165 -218 509 -288 683 -355 877 -52 150 -121
388 -150 522 -13 57 -29 109 -36 116 -7 7 -55 15 -111 19 -257 18 -775 103
-693 114 268 35 723 133 751 161 4 3 1 49 -7 101 -20 141 -29 485 -15 615 15
151 51 335 65 335 62 0 1652 -114 1928 -138 46 -4 95 -4 109 -1 13 4 39 7 57
8 31 1 32 2 32 49 0 88 -20 366 -36 492 -65 525 -224 831 -505 975 -106 54
-241 94 -394 116 -196 28 -1886 -9 -2360 -52 -60 -5 -274 -12 -475 -15 -492
-8 -1255 21 -2270 86 -168 10 -453 29 -635 40 -181 12 -557 37 -835 57 -483
35 -790 50 -801 39z m-794 -925 c-11 -10 -75 -23 -75 -15 0 7 42 23 65 23 11
1 15 -3 10 -8z"/>
</g>
</svg>
