<?xml version="1.0" standalone="no"?>
<!DOCTYPE svg PUBLIC "-//W3C//DTD SVG 20010904//EN"
 "http://www.w3.org/TR/2001/REC-SVG-20010904/DTD/svg10.dtd">
<svg version="1.0" xmlns="http://www.w3.org/2000/svg"
 width="1114.000000pt" height="1280.000000pt" viewBox="0 0 1114.000000 1280.000000"
 preserveAspectRatio="xMidYMid meet">
<metadata>
Created by potrace 1.15, written by Peter Selinger 2001-2017
</metadata>
<g transform="translate(0.000000,1280.000000) scale(0.100000,-0.100000)"
fill="#000000" stroke="none">
<path d="M5285 12789 c-88 -6 -153 -17 -225 -39 -20 -6 -147 -10 -305 -10
l-270 0 -67 -45 c-170 -114 -345 -338 -525 -670 -39 -71 -125 -222 -191 -334
-115 -195 -136 -222 -434 -585 -172 -209 -372 -444 -444 -521 -171 -182 -693
-698 -904 -893 -361 -335 -633 -674 -793 -992 -94 -187 -134 -317 -206 -675
-33 -164 -101 -535 -125 -685 -8 -52 -27 -166 -41 -252 -88 -548 -81 -515
-147 -693 -48 -129 -204 -482 -313 -710 -166 -345 -235 -561 -276 -865 -35
-253 -7 -670 77 -1135 14 -77 29 -162 34 -190 26 -144 89 -462 141 -713 59
-283 59 -284 57 -435 -3 -143 -1 -157 26 -242 34 -110 56 -153 112 -226 127
-165 259 -247 854 -526 126 -59 318 -195 482 -341 49 -44 63 -62 52 -66 -11
-4 30 -45 138 -138 84 -73 180 -159 214 -190 70 -64 116 -90 255 -141 208 -78
633 -164 944 -192 90 -8 100 -10 570 -81 770 -116 1341 -192 1500 -201 134 -7
387 10 555 38 312 51 635 163 871 301 52 31 120 68 153 83 64 30 165 97 236
156 25 20 263 182 529 359 642 427 643 427 1061 454 630 41 681 47 1010 112
564 112 815 249 1005 548 109 172 187 424 226 736 21 161 18 651 -4 815 -27
204 -71 403 -112 501 -52 126 -160 314 -227 393 -98 118 -166 226 -189 302
-20 66 -21 78 -10 177 20 175 57 374 142 757 81 362 155 794 198 1150 6 50 16
133 22 185 18 141 15 408 -5 508 -45 231 -113 352 -306 542 -171 168 -271 238
-506 354 -506 250 -907 489 -1154 687 -320 257 -989 1043 -1485 1744 -549 777
-1034 1288 -1607 1696 -219 156 -368 203 -593 188z"/>
</g>
</svg>
