<?xml version="1.0" standalone="no"?>
<!DOCTYPE svg PUBLIC "-//W3C//DTD SVG 20010904//EN"
 "http://www.w3.org/TR/2001/REC-SVG-20010904/DTD/svg10.dtd">
<svg version="1.0" xmlns="http://www.w3.org/2000/svg"
 width="1280.000000pt" height="1034.000000pt" viewBox="0 0 1280.000000 1034.000000"
 preserveAspectRatio="xMidYMid meet">
<metadata>
Created by potrace 1.15, written by Peter Selinger 2001-2017
</metadata>
<g transform="translate(0.000000,1034.000000) scale(0.100000,-0.100000)"
fill="#000000" stroke="none">
<path d="M1408 10328 l-26 -13 1374 -1555 c756 -855 1390 -1576 1409 -1603
l35 -47 -37 5 c-170 26 -4158 553 -4161 550 -2 -2 2 -21 8 -42 18 -55 163
-195 285 -275 196 -129 475 -268 790 -392 219 -87 989 -335 1001 -323 2 2 -23
12 -56 22 -33 10 -58 20 -56 22 2 2 73 -17 157 -41 295 -86 1436 -401 1801
-497 70 -18 125 -35 123 -37 -2 -3 -25 1 -50 8 -25 7 -48 11 -50 8 -8 -7 483
-130 850 -213 139 -31 574 -125 580 -125 1 0 81 -89 178 -197 191 -216 404
-438 1071 -1120 716 -730 1208 -1265 1299 -1411 61 -98 102 -187 122 -261 20
-77 19 -96 -6 -148 -19 -39 -30 -48 -103 -82 -298 -138 -557 -432 -661 -753
-47 -145 -65 -257 -65 -408 0 -274 71 -492 250 -769 81 -124 255 -302 374
-382 414 -277 864 -322 1282 -129 167 77 362 231 468 369 265 346 312 832 118
1217 -56 110 -149 234 -415 553 -43 52 -314 347 -601 655 -565 605 -650 701
-917 1021 -372 448 -626 770 -744 945 -134 200 -267 492 -282 622 -3 26 0 82
7 123 l13 75 96 93 c94 91 98 94 193 125 188 62 307 77 628 77 157 0 348 -6
425 -13 77 -7 239 -22 360 -33 632 -56 816 -81 1770 -234 424 -68 817 -128
875 -134 439 -45 584 -50 726 -26 405 71 756 369 887 755 75 220 86 489 31
715 -92 370 -334 656 -709 841 -176 87 -414 144 -596 144 -80 0 -267 -17 -339
-31 -255 -48 -485 -174 -668 -363 -178 -185 -289 -397 -343 -659 -25 -121 -29
-324 -9 -432 12 -67 11 -73 -9 -113 -39 -76 -138 -115 -345 -133 -96 -8 -142
-7 -245 6 -481 61 -981 145 -1974 331 -759 142 -969 178 -1267 219 -140 19
-261 35 -268 35 -7 0 -104 89 -215 197 -416 405 -691 653 -1471 1328 -574 496
-967 830 -1198 1018 -560 455 -1045 760 -1398 878 -133 44 -255 59 -302 37z
m10191 -2644 c147 -17 215 -36 336 -97 375 -187 575 -523 552 -926 -21 -355
-212 -616 -539 -739 -187 -70 -327 -91 -496 -72 -384 40 -572 103 -757 250
-127 101 -233 262 -274 418 -100 372 101 830 459 1046 90 55 232 112 312 125
86 14 263 12 407 -5z m-9672 -990 c-3 -3 -12 -4 -19 -1 -8 3 -5 6 6 6 11 1 17
-2 13 -5z m2170 -600 c-3 -3 -12 -4 -19 -1 -8 3 -5 6 6 6 11 1 17 -2 13 -5z
m40 -10 c-3 -3 -12 -4 -19 -1 -8 3 -5 6 6 6 11 1 17 -2 13 -5z m4468 -3763
c109 -28 264 -107 363 -187 85 -68 260 -253 340 -359 120 -159 201 -408 202
-613 0 -287 -131 -519 -395 -693 -320 -212 -688 -212 -1045 -2 -114 67 -209
160 -328 318 -158 211 -211 360 -212 593 0 278 96 520 282 711 178 182 383
267 618 256 52 -2 131 -13 175 -24z"/>
<path d="M3878 6133 c7 -3 16 -2 19 1 4 3 -2 6 -13 5 -11 0 -14 -3 -6 -6z"/>
<path d="M3918 6123 c7 -3 16 -2 19 1 4 3 -2 6 -13 5 -11 0 -14 -3 -6 -6z"/>
</g>
</svg>
